<svg viewBox="0 0 200 200" fill="none" xmlns="http://www.w3.org/2000/svg">
  <path
    d="M163.278 58.3332L184.112 83.6249C184.112 83.6249 176.403 112.646 154.945 133.333C113.737 173.054 53.5535 147.096 29.9452 129.167C7.62432 110.958 18.6243 106.95 25.7785 108.333L46.6118 112.5C8.84099 52.9124 19.216 46.5499 29.9452 49.9999L67.4452 66.6666C91.4827 79.9041 102.862 72.9166 109.112 66.6666L121.612 54.1666C140.362 37.4999 158.987 53.4999 163.278 58.3332Z"
    stroke="currentColor" stroke-width="16.6667" stroke-linecap="round" stroke-linejoin="round" />
  <path
    d="M142.445 91.6667C137.843 91.6667 134.112 87.9357 134.112 83.3333C134.112 78.731 137.843 75 142.445 75C147.047 75 150.778 78.731 150.778 83.3333C150.778 87.9357 147.047 91.6667 142.445 91.6667Z"
    fill="currentColor" />
</svg>